<svg xmlns="http://www.w3.org/2000/svg" viewBox="0 0 200 900">
  <defs>
    <!-- Glossy gold center gradient -->
    <radialGradient id="gc" cx="36%" cy="30%" r="68%">
      <stop offset="0%"   stop-color="#FFFACC"/>
      <stop offset="22%"  stop-color="#FFE040"/>
      <stop offset="62%"  stop-color="#FFB000"/>
      <stop offset="100%" stop-color="#955200"/>
    </radialGradient>
    <!-- Inner gold -->
    <radialGradient id="gi" cx="42%" cy="36%" r="64%">
      <stop offset="0%"   stop-color="#FFD070"/>
      <stop offset="100%" stop-color="#7A4000"/>
    </radialGradient>
    <!-- Atmospheric glow behind flowers -->
    <radialGradient id="fg">
      <stop offset="0%"   stop-color="#D4001A" stop-opacity="0.22"/>
      <stop offset="70%"  stop-color="#D4001A" stop-opacity="0.06"/>
      <stop offset="100%" stop-color="#D4001A" stop-opacity="0"/>
    </radialGradient>
    <!-- Subtle petal highlight sheen -->
    <radialGradient id="sh" cx="30%" cy="20%" r="70%">
      <stop offset="0%"   stop-color="#FF4060" stop-opacity="0.22"/>
      <stop offset="100%" stop-color="#FF4060" stop-opacity="0"/>
    </radialGradient>
  </defs>

  <!-- STEMS -->
  <path d="M 97 905 C 96 800 94 660 96 520 C 98 380 94 200 96 10"
        fill="none" stroke="#2D5A12" stroke-width="2.5" stroke-linecap="round" opacity="0.6"/>
  <path d="M 96 720 C 114 720 134 720 155 720"
        fill="none" stroke="#2D5A12" stroke-width="2" stroke-linecap="round" opacity="0.6"/>
  <path d="M 96 490 C 78 490 58 490 38 490"
        fill="none" stroke="#2D5A12" stroke-width="1.8" stroke-linecap="round" opacity="0.6"/>
  <path d="M 96 268 C 111 268 129 269 148 270"
        fill="none" stroke="#2D5A12" stroke-width="1.5" stroke-linecap="round" opacity="0.6"/>
  <path d="M 96 118 C 91 118 84 118 78 118"
        fill="none" stroke="#2D5A12" stroke-width="1.3" stroke-linecap="round" opacity="0.55"/>

  <!-- LEAVES -->
  <ellipse cx="118" cy="719" rx="4.5" ry="16" fill="#1C4A08" transform="rotate(-8,118,719)"  opacity="0.75"/>
  <ellipse cx="135" cy="721" rx="4"   ry="13" fill="#1C4A08" transform="rotate(10,135,721)"  opacity="0.62"/>
  <ellipse cx="100" cy="815" rx="4"   ry="15" fill="#1C4A08" transform="rotate(25,100,815)"  opacity="0.62"/>
  <ellipse cx="75"  cy="489" rx="4.5" ry="16" fill="#1C4A08" transform="rotate(175,75,489)"  opacity="0.75"/>
  <ellipse cx="58"  cy="491" rx="4"   ry="13" fill="#1C4A08" transform="rotate(-170,58,491)" opacity="0.62"/>
  <ellipse cx="93"  cy="600" rx="4"   ry="14" fill="#1C4A08" transform="rotate(-22,93,600)"  opacity="0.62"/>
  <ellipse cx="113" cy="269" rx="4"   ry="14" fill="#1C4A08" transform="rotate(-10,113,269)" opacity="0.68"/>
  <ellipse cx="130" cy="270" rx="3.5" ry="11" fill="#1C4A08" transform="rotate(8,130,270)"   opacity="0.58"/>
  <ellipse cx="98"  cy="380" rx="3.5" ry="13" fill="#1C4A08" transform="rotate(20,98,380)"   opacity="0.58"/>
  <ellipse cx="95"  cy="185" rx="3.5" ry="12" fill="#1C4A08" transform="rotate(-15,95,185)"  opacity="0.58"/>

  <!-- PARTICLES — red & gold bokeh -->
  <circle cx="173" cy="683" r="3"   fill="#D4001A" opacity="0.28"/>
  <circle cx="192" cy="742" r="2"   fill="#D4001A" opacity="0.2"/>
  <circle cx="141" cy="698" r="2.5" fill="#D4001A" opacity="0.22"/>
  <circle cx="179" cy="711" r="1.5" fill="#FFD000" opacity="0.38"/>
  <circle cx="157" cy="755" r="2"   fill="#FFD000" opacity="0.24"/>
  <circle cx="14"  cy="461" r="2.5" fill="#D4001A" opacity="0.24"/>
  <circle cx="54"  cy="472" r="2"   fill="#D4001A" opacity="0.26"/>
  <circle cx="24"  cy="510" r="2"   fill="#FFD000" opacity="0.3"/>
  <circle cx="165" cy="246" r="2"   fill="#D4001A" opacity="0.28"/>
  <circle cx="174" cy="292" r="2.5" fill="#D4001A" opacity="0.2"/>
  <circle cx="147" cy="232" r="1.5" fill="#FFD000" opacity="0.38"/>
  <circle cx="60"  cy="100" r="1.8" fill="#D4001A" opacity="0.26"/>
  <circle cx="95"  cy="104" r="1.5" fill="#FFD000" opacity="0.34"/>
  <circle cx="46"  cy="350" r="1.5" fill="#D4001A" opacity="0.16"/>
  <circle cx="144" cy="568" r="2"   fill="#D4001A" opacity="0.14"/>
  <circle cx="75"  cy="778" r="1.5" fill="#D4001A" opacity="0.18"/>
  <circle cx="120" cy="158" r="1.5" fill="#FFD000" opacity="0.2"/>

  <!-- ═══ FLOWER 1: LARGE (155, 720) ═══ -->
  <g transform="translate(155,720)">
    <circle r="54" fill="url(#fg)"/>
    <ellipse rx="14" ry="30" fill="#72000F" transform="rotate(22.5)  translate(0,-22)"/>
    <ellipse rx="14" ry="30" fill="#72000F" transform="rotate(67.5)  translate(0,-22)"/>
    <ellipse rx="14" ry="30" fill="#72000F" transform="rotate(112.5) translate(0,-22)"/>
    <ellipse rx="14" ry="30" fill="#72000F" transform="rotate(157.5) translate(0,-22)"/>
    <ellipse rx="14" ry="30" fill="#72000F" transform="rotate(202.5) translate(0,-22)"/>
    <ellipse rx="14" ry="30" fill="#72000F" transform="rotate(247.5) translate(0,-22)"/>
    <ellipse rx="14" ry="30" fill="#72000F" transform="rotate(292.5) translate(0,-22)"/>
    <ellipse rx="14" ry="30" fill="#72000F" transform="rotate(337.5) translate(0,-22)"/>
    <ellipse rx="14" ry="30" fill="#E0001C" transform="rotate(0)    translate(0,-22)"/>
    <ellipse rx="14" ry="30" fill="#E0001C" transform="rotate(45)   translate(0,-22)"/>
    <ellipse rx="14" ry="30" fill="#E0001C" transform="rotate(90)   translate(0,-22)"/>
    <ellipse rx="14" ry="30" fill="#E0001C" transform="rotate(135)  translate(0,-22)"/>
    <ellipse rx="14" ry="30" fill="#E0001C" transform="rotate(180)  translate(0,-22)"/>
    <ellipse rx="14" ry="30" fill="#E0001C" transform="rotate(225)  translate(0,-22)"/>
    <ellipse rx="14" ry="30" fill="#E0001C" transform="rotate(270)  translate(0,-22)"/>
    <ellipse rx="14" ry="30" fill="#E0001C" transform="rotate(315)  translate(0,-22)"/>
    <!-- Highlight sheen -->
    <ellipse cx="-10" cy="-10" rx="28" ry="20" fill="url(#sh)" transform="rotate(-25)"/>
    <!-- Gold center -->
    <circle r="16"   fill="url(#gc)"/>
    <circle r="10.5" fill="url(#gi)"/>
    <circle r="5"    fill="#5A2800"/>
    <circle r="18"   fill="none" stroke="#FFD000" stroke-width="0.7" opacity="0.38"/>
  </g>

  <!-- ═══ FLOWER 2: MEDIUM (38, 490) ═══ -->
  <g transform="translate(38,490)">
    <circle r="41" fill="url(#fg)"/>
    <ellipse rx="11" ry="23" fill="#72000F" transform="rotate(22.5)  translate(0,-16)"/>
    <ellipse rx="11" ry="23" fill="#72000F" transform="rotate(67.5)  translate(0,-16)"/>
    <ellipse rx="11" ry="23" fill="#72000F" transform="rotate(112.5) translate(0,-16)"/>
    <ellipse rx="11" ry="23" fill="#72000F" transform="rotate(157.5) translate(0,-16)"/>
    <ellipse rx="11" ry="23" fill="#72000F" transform="rotate(202.5) translate(0,-16)"/>
    <ellipse rx="11" ry="23" fill="#72000F" transform="rotate(247.5) translate(0,-16)"/>
    <ellipse rx="11" ry="23" fill="#72000F" transform="rotate(292.5) translate(0,-16)"/>
    <ellipse rx="11" ry="23" fill="#72000F" transform="rotate(337.5) translate(0,-16)"/>
    <ellipse rx="11" ry="23" fill="#E0001C" transform="rotate(0)    translate(0,-16)"/>
    <ellipse rx="11" ry="23" fill="#E0001C" transform="rotate(45)   translate(0,-16)"/>
    <ellipse rx="11" ry="23" fill="#E0001C" transform="rotate(90)   translate(0,-16)"/>
    <ellipse rx="11" ry="23" fill="#E0001C" transform="rotate(135)  translate(0,-16)"/>
    <ellipse rx="11" ry="23" fill="#E0001C" transform="rotate(180)  translate(0,-16)"/>
    <ellipse rx="11" ry="23" fill="#E0001C" transform="rotate(225)  translate(0,-16)"/>
    <ellipse rx="11" ry="23" fill="#E0001C" transform="rotate(270)  translate(0,-16)"/>
    <ellipse rx="11" ry="23" fill="#E0001C" transform="rotate(315)  translate(0,-16)"/>
    <ellipse cx="-7" cy="-8" rx="21" ry="15" fill="url(#sh)" transform="rotate(-25)"/>
    <circle r="12.5" fill="url(#gc)"/>
    <circle r="8"    fill="url(#gi)"/>
    <circle r="3.8"  fill="#5A2800"/>
    <circle r="14"   fill="none" stroke="#FFD000" stroke-width="0.6" opacity="0.35"/>
  </g>

  <!-- ═══ FLOWER 3: MEDIUM-SMALL (148, 270) ═══ -->
  <g transform="translate(148,270)">
    <circle r="37" fill="url(#fg)"/>
    <ellipse rx="10" ry="21" fill="#72000F" transform="rotate(22.5)  translate(0,-15)"/>
    <ellipse rx="10" ry="21" fill="#72000F" transform="rotate(67.5)  translate(0,-15)"/>
    <ellipse rx="10" ry="21" fill="#72000F" transform="rotate(112.5) translate(0,-15)"/>
    <ellipse rx="10" ry="21" fill="#72000F" transform="rotate(157.5) translate(0,-15)"/>
    <ellipse rx="10" ry="21" fill="#72000F" transform="rotate(202.5) translate(0,-15)"/>
    <ellipse rx="10" ry="21" fill="#72000F" transform="rotate(247.5) translate(0,-15)"/>
    <ellipse rx="10" ry="21" fill="#72000F" transform="rotate(292.5) translate(0,-15)"/>
    <ellipse rx="10" ry="21" fill="#72000F" transform="rotate(337.5) translate(0,-15)"/>
    <ellipse rx="10" ry="21" fill="#E0001C" transform="rotate(0)    translate(0,-15)"/>
    <ellipse rx="10" ry="21" fill="#E0001C" transform="rotate(45)   translate(0,-15)"/>
    <ellipse rx="10" ry="21" fill="#E0001C" transform="rotate(90)   translate(0,-15)"/>
    <ellipse rx="10" ry="21" fill="#E0001C" transform="rotate(135)  translate(0,-15)"/>
    <ellipse rx="10" ry="21" fill="#E0001C" transform="rotate(180)  translate(0,-15)"/>
    <ellipse rx="10" ry="21" fill="#E0001C" transform="rotate(225)  translate(0,-15)"/>
    <ellipse rx="10" ry="21" fill="#E0001C" transform="rotate(270)  translate(0,-15)"/>
    <ellipse rx="10" ry="21" fill="#E0001C" transform="rotate(315)  translate(0,-15)"/>
    <ellipse cx="-6" cy="-7" rx="18" ry="13" fill="url(#sh)" transform="rotate(-25)"/>
    <circle r="11"  fill="url(#gc)"/>
    <circle r="7.5" fill="url(#gi)"/>
    <circle r="3.5" fill="#5A2800"/>
    <circle r="12.5" fill="none" stroke="#FFD000" stroke-width="0.5" opacity="0.35"/>
  </g>

  <!-- ═══ FLOWER 4: SMALL (78, 118) ═══ -->
  <g transform="translate(78,118)">
    <circle r="25" fill="url(#fg)"/>
    <ellipse rx="7" ry="14" fill="#72000F" transform="rotate(22.5)  translate(0,-10)"/>
    <ellipse rx="7" ry="14" fill="#72000F" transform="rotate(67.5)  translate(0,-10)"/>
    <ellipse rx="7" ry="14" fill="#72000F" transform="rotate(112.5) translate(0,-10)"/>
    <ellipse rx="7" ry="14" fill="#72000F" transform="rotate(157.5) translate(0,-10)"/>
    <ellipse rx="7" ry="14" fill="#72000F" transform="rotate(202.5) translate(0,-10)"/>
    <ellipse rx="7" ry="14" fill="#72000F" transform="rotate(247.5) translate(0,-10)"/>
    <ellipse rx="7" ry="14" fill="#72000F" transform="rotate(292.5) translate(0,-10)"/>
    <ellipse rx="7" ry="14" fill="#72000F" transform="rotate(337.5) translate(0,-10)"/>
    <ellipse rx="7" ry="14" fill="#E0001C" transform="rotate(0)    translate(0,-10)"/>
    <ellipse rx="7" ry="14" fill="#E0001C" transform="rotate(45)   translate(0,-10)"/>
    <ellipse rx="7" ry="14" fill="#E0001C" transform="rotate(90)   translate(0,-10)"/>
    <ellipse rx="7" ry="14" fill="#E0001C" transform="rotate(135)  translate(0,-10)"/>
    <ellipse rx="7" ry="14" fill="#E0001C" transform="rotate(180)  translate(0,-10)"/>
    <ellipse rx="7" ry="14" fill="#E0001C" transform="rotate(225)  translate(0,-10)"/>
    <ellipse rx="7" ry="14" fill="#E0001C" transform="rotate(270)  translate(0,-10)"/>
    <ellipse rx="7" ry="14" fill="#E0001C" transform="rotate(315)  translate(0,-10)"/>
    <ellipse cx="-4" cy="-5" rx="13" ry="9" fill="url(#sh)" transform="rotate(-25)"/>
    <circle r="8"   fill="url(#gc)"/>
    <circle r="5"   fill="url(#gi)"/>
    <circle r="2.5" fill="#5A2800"/>
    <circle r="9"   fill="none" stroke="#FFD000" stroke-width="0.5" opacity="0.3"/>
  </g>

  <!-- ═══ FLOWER 5: TINY (95, 35) ═══ -->
  <g transform="translate(95,35)" opacity="0.88">
    <circle r="16" fill="url(#fg)"/>
    <ellipse rx="4.5" ry="9" fill="#72000F" transform="rotate(22.5)  translate(0,-6)"/>
    <ellipse rx="4.5" ry="9" fill="#72000F" transform="rotate(67.5)  translate(0,-6)"/>
    <ellipse rx="4.5" ry="9" fill="#72000F" transform="rotate(112.5) translate(0,-6)"/>
    <ellipse rx="4.5" ry="9" fill="#72000F" transform="rotate(157.5) translate(0,-6)"/>
    <ellipse rx="4.5" ry="9" fill="#72000F" transform="rotate(202.5) translate(0,-6)"/>
    <ellipse rx="4.5" ry="9" fill="#72000F" transform="rotate(247.5) translate(0,-6)"/>
    <ellipse rx="4.5" ry="9" fill="#72000F" transform="rotate(292.5) translate(0,-6)"/>
    <ellipse rx="4.5" ry="9" fill="#72000F" transform="rotate(337.5) translate(0,-6)"/>
    <ellipse rx="4.5" ry="9" fill="#E0001C" transform="rotate(0)    translate(0,-6)"/>
    <ellipse rx="4.5" ry="9" fill="#E0001C" transform="rotate(45)   translate(0,-6)"/>
    <ellipse rx="4.5" ry="9" fill="#E0001C" transform="rotate(90)   translate(0,-6)"/>
    <ellipse rx="4.5" ry="9" fill="#E0001C" transform="rotate(135)  translate(0,-6)"/>
    <ellipse rx="4.5" ry="9" fill="#E0001C" transform="rotate(180)  translate(0,-6)"/>
    <ellipse rx="4.5" ry="9" fill="#E0001C" transform="rotate(225)  translate(0,-6)"/>
    <ellipse rx="4.5" ry="9" fill="#E0001C" transform="rotate(270)  translate(0,-6)"/>
    <ellipse rx="4.5" ry="9" fill="#E0001C" transform="rotate(315)  translate(0,-6)"/>
    <circle r="5"   fill="url(#gc)"/>
    <circle r="3.2" fill="url(#gi)"/>
    <circle r="1.5" fill="#5A2800"/>
  </g>
</svg>
